<svg width="25" height="25" viewBox="0 0 25 25" fill="none" xmlns="http://www.w3.org/2000/svg">
<path fill-rule="evenodd" clip-rule="evenodd" d="M0 12.5C0 5.60721 5.60769 0 12.5 0C19.3923 0 25 5.60721 25 12.5C25 19.3928 19.3923 25 12.5 25C5.60769 25 0 19.3928 0 12.5ZM13.4615 13.4615H18.5096C19.0404 13.4615 19.4712 13.0308 19.4712 12.5C19.4712 11.9692 19.0404 11.5385 18.5096 11.5385H13.4615V6.73077C13.4615 6.2 13.0308 5.76923 12.5 5.76923C11.9692 5.76923 11.5385 6.2 11.5385 6.73077V11.5385H6.49038C5.95962 11.5385 5.52885 11.9692 5.52885 12.5C5.52885 13.0308 5.95962 13.4615 6.49038 13.4615H11.5385V18.75C11.5385 19.2808 11.9692 19.7115 12.5 19.7115C13.0308 19.7115 13.4615 19.2808 13.4615 18.75V13.4615Z" fill="white"/>
</svg>
